<svg width="50" height="50" viewBox="0 0 50 50" fill="none" xmlns="http://www.w3.org/2000/svg">
<g clip-path="url(#clip0_1_121)">
<path d="M14.5833 0H8.33333C6.1232 0 4.00358 0.877974 2.44078 2.44078C0.877974 4.00358 0 6.1232 0 8.33333L0 14.5833C0 16.7935 0.877974 18.9131 2.44078 20.4759C4.00358 22.0387 6.1232 22.9167 8.33333 22.9167H14.5833C16.7935 22.9167 18.9131 22.0387 20.4759 20.4759C22.0387 18.9131 22.9167 16.7935 22.9167 14.5833V8.33333C22.9167 6.1232 22.0387 4.00358 20.4759 2.44078C18.9131 0.877974 16.7935 0 14.5833 0V0ZM18.75 14.5833C18.75 15.6884 18.311 16.7482 17.5296 17.5296C16.7482 18.311 15.6884 18.75 14.5833 18.75H8.33333C7.22826 18.75 6.16846 18.311 5.38705 17.5296C4.60565 16.7482 4.16667 15.6884 4.16667 14.5833V8.33333C4.16667 7.22826 4.60565 6.16846 5.38705 5.38705C6.16846 4.60565 7.22826 4.16667 8.33333 4.16667H14.5833C15.6884 4.16667 16.7482 4.60565 17.5296 5.38705C18.311 6.16846 18.75 7.22826 18.75 8.33333V14.5833Z" fill="#25BA6A"/>
<path d="M14.5833 27.0833H8.33333C6.1232 27.0833 4.00358 27.9612 2.44078 29.524C0.877974 31.0868 0 33.2065 0 35.4166L0 41.6666C0 43.8767 0.877974 45.9964 2.44078 47.5592C4.00358 49.122 6.1232 49.9999 8.33333 49.9999H14.5833C16.7935 49.9999 18.9131 49.122 20.4759 47.5592C22.0387 45.9964 22.9167 43.8767 22.9167 41.6666V35.4166C22.9167 33.2065 22.0387 31.0868 20.4759 29.524C18.9131 27.9612 16.7935 27.0833 14.5833 27.0833ZM18.75 41.6666C18.75 42.7717 18.311 43.8315 17.5296 44.6129C16.7482 45.3943 15.6884 45.8333 14.5833 45.8333H8.33333C7.22826 45.8333 6.16846 45.3943 5.38705 44.6129C4.60565 43.8315 4.16667 42.7717 4.16667 41.6666V35.4166C4.16667 34.3115 4.60565 33.2517 5.38705 32.4703C6.16846 31.6889 7.22826 31.2499 8.33333 31.2499H14.5833C15.6884 31.2499 16.7482 31.6889 17.5296 32.4703C18.311 33.2517 18.75 34.3115 18.75 35.4166V41.6666Z" fill="#25BA6A"/>
<path d="M41.6668 27.0833H35.4168C33.2067 27.0833 31.0871 27.9612 29.5243 29.524C27.9615 31.0868 27.0835 33.2065 27.0835 35.4166V41.6666C27.0835 43.8767 27.9615 45.9964 29.5243 47.5592C31.0871 49.122 33.2067 49.9999 35.4168 49.9999H41.6668C43.8769 49.9999 45.9966 49.122 47.5594 47.5592C49.1222 45.9964 50.0001 43.8767 50.0001 41.6666V35.4166C50.0001 33.2065 49.1222 31.0868 47.5594 29.524C45.9966 27.9612 43.8769 27.0833 41.6668 27.0833ZM45.8335 41.6666C45.8335 42.7717 45.3945 43.8315 44.6131 44.6129C43.8317 45.3943 42.7719 45.8333 41.6668 45.8333H35.4168C34.3118 45.8333 33.2519 45.3943 32.4705 44.6129C31.6891 43.8315 31.2502 42.7717 31.2502 41.6666V35.4166C31.2502 34.3115 31.6891 33.2517 32.4705 32.4703C33.2519 31.6889 34.3118 31.2499 35.4168 31.2499H41.6668C42.7719 31.2499 43.8317 31.6889 44.6131 32.4703C45.3945 33.2517 45.8335 34.3115 45.8335 35.4166V41.6666Z" fill="#25BA6A"/>
<path d="M29.1668 14.5833H35.4168V20.8333C35.4168 21.3858 35.6363 21.9157 36.027 22.3064C36.4177 22.6971 36.9476 22.9166 37.5002 22.9166C38.0527 22.9166 38.5826 22.6971 38.9733 22.3064C39.364 21.9157 39.5835 21.3858 39.5835 20.8333V14.5833H45.8335C46.386 14.5833 46.9159 14.3638 47.3066 13.9731C47.6973 13.5824 47.9168 13.0525 47.9168 12.4999C47.9168 11.9474 47.6973 11.4175 47.3066 11.0268C46.9159 10.6361 46.386 10.4166 45.8335 10.4166H39.5835V4.16659C39.5835 3.61405 39.364 3.08415 38.9733 2.69345C38.5826 2.30275 38.0527 2.08325 37.5002 2.08325C36.9476 2.08325 36.4177 2.30275 36.027 2.69345C35.6363 3.08415 35.4168 3.61405 35.4168 4.16659V10.4166H29.1668C28.6143 10.4166 28.0844 10.6361 27.6937 11.0268C27.303 11.4175 27.0835 11.9474 27.0835 12.4999C27.0835 13.0525 27.303 13.5824 27.6937 13.9731C28.0844 14.3638 28.6143 14.5833 29.1668 14.5833Z" fill="#25BA6A"/>
</g>
<defs>
<clipPath id="clip0_1_121">
<rect width="50" height="50" fill="white"/>
</clipPath>
</defs>
</svg>
