<svg width="14" height="24" viewBox="0 0 14 24" fill="none" xmlns="http://www.w3.org/2000/svg">
<path d="M8.93212 4C9.74556 4.00079 10.5255 4.32428 11.1006 4.89947C11.6758 5.47466 11.9993 6.25456 12.0001 7.068C12.0001 7.33322 12.1055 7.58757 12.293 7.77511C12.4806 7.96264 12.7349 8.068 13.0001 8.068C13.2653 8.068 13.5197 7.96264 13.7072 7.77511C13.8948 7.58757 14.0001 7.33322 14.0001 7.068V7C14.0001 6.981 14.0001 6.964 14.0001 6.945C13.9667 5.62273 13.4183 4.36578 12.4716 3.44206C11.5249 2.51833 10.2548 2.00088 8.93212 2H8.00012V1C8.00012 0.734784 7.89476 0.48043 7.70723 0.292893C7.51969 0.105357 7.26534 0 7.00012 0C6.73491 0 6.48055 0.105357 6.29302 0.292893C6.10548 0.48043 6.00012 0.734784 6.00012 1V2H5.06812C3.86544 2.00128 2.70241 2.43023 1.78692 3.21018C0.871421 3.99012 0.263131 5.07022 0.070775 6.25742C-0.121581 7.44462 0.114533 8.66154 0.736914 9.69066C1.3593 10.7198 2.32738 11.494 3.46812 11.875L6.00012 12.72V20H5.06812C4.25468 19.9992 3.47479 19.6757 2.8996 19.1005C2.32441 18.5253 2.00092 17.7454 2.00012 16.932C2.00012 16.6668 1.89477 16.4124 1.70723 16.2249C1.51969 16.0374 1.26534 15.932 1.00012 15.932C0.734906 15.932 0.480552 16.0374 0.293015 16.2249C0.105479 16.4124 0.00012207 16.6668 0.00012207 16.932V17C0.00012207 17.019 0.00012207 17.036 0.00012207 17.055C0.0334954 18.3773 0.581985 19.6342 1.52869 20.5579C2.47539 21.4817 3.74543 21.9991 5.06812 22H6.00012V23C6.00012 23.2652 6.10548 23.5196 6.29302 23.7071C6.48055 23.8946 6.73491 24 7.00012 24C7.26534 24 7.51969 23.8946 7.70723 23.7071C7.89476 23.5196 8.00012 23.2652 8.00012 23V22H8.93212C10.1348 21.9987 11.2978 21.5698 12.2133 20.7898C13.1288 20.0099 13.7371 18.9298 13.9295 17.7426C14.1218 16.5554 13.8857 15.3385 13.2633 14.3093C12.6409 13.2802 11.6729 12.506 10.5321 12.125L8.00012 11.28V4H8.93212ZM9.90212 14.021C10.5935 14.2511 11.1805 14.7198 11.5578 15.3432C11.9352 15.9666 12.0784 16.704 11.9617 17.4233C11.845 18.1426 11.476 18.7969 10.9209 19.269C10.3659 19.7411 9.66084 20.0003 8.93212 20H8.00012V13.387L9.90212 14.021ZM6.00012 10.613L4.10012 9.979C3.40886 9.74893 2.82203 9.28037 2.44466 8.65718C2.06728 8.034 1.92399 7.29685 2.04042 6.57768C2.15686 5.8585 2.52542 5.20422 3.08015 4.73194C3.63489 4.25966 4.33958 4.00021 5.06812 4H6.00012V10.613Z" fill="#33DF58"/>
</svg>
