<svg width="24" height="22" viewBox="0 0 24 22" fill="none" xmlns="http://www.w3.org/2000/svg">
<path d="M18.5 -0.000183105H5.5C4.0418 0.00140506 2.64377 0.581378 1.61267 1.61248C0.581561 2.64359 0.00158817 4.04161 0 5.49982L0 16.4998C0.00158817 17.958 0.581561 19.356 1.61267 20.3871C2.64377 21.4183 4.0418 21.9982 5.5 21.9998H18.5C19.9582 21.9982 21.3562 21.4183 22.3873 20.3871C23.4184 19.356 23.9984 17.958 24 16.4998V5.49982C23.9984 4.04161 23.4184 2.64359 22.3873 1.61248C21.3562 0.581378 19.9582 0.00140506 18.5 -0.000183105ZM18.5 2.99982C19.1065 3.00184 19.6911 3.22637 20.143 3.63082L13.643 10.1308C13.2015 10.5525 12.6145 10.7878 12.004 10.7878C11.3935 10.7878 10.8065 10.5525 10.365 10.1308L3.865 3.63082C4.31485 3.22819 4.8963 3.00379 5.5 2.99982H18.5ZM18.5 18.9998H5.5C4.83696 18.9998 4.20107 18.7364 3.73223 18.2676C3.26339 17.7987 3 17.1629 3 16.4998V7.01682L8.239 12.2558C8.73276 12.7498 9.319 13.1416 9.96424 13.409C10.6095 13.6763 11.3011 13.8139 11.9995 13.8139C12.6979 13.8139 13.3895 13.6763 14.0348 13.409C14.68 13.1416 15.2662 12.7498 15.76 12.2558L21 7.01682V16.4998C21 17.1629 20.7366 17.7987 20.2678 18.2676C19.7989 18.7364 19.163 18.9998 18.5 18.9998Z" fill="#7E7E7E"/>
</svg>
