<svg width="50" height="46" viewBox="0 0 50 46" fill="none" xmlns="http://www.w3.org/2000/svg">
<path d="M45.9517 8.89538L30.5892 1.57663C27.2076 -0.443293 22.9986 -0.479134 19.583 1.48288L4.0476 8.89538C3.9893 8.92458 3.92885 8.95583 3.8726 8.98913C0.18588 11.0971 -1.094 15.7947 1.014 19.4814C1.72856 20.7312 2.77963 21.7552 4.0476 22.4371L8.33305 24.4788V34.6871C8.33559 39.2518 11.3058 43.2846 15.6643 44.6413C18.6974 45.5187 21.8424 45.9483 24.9997 45.9163C28.1566 45.9516 31.3016 45.5256 34.3352 44.6517C38.6937 43.2952 41.6639 39.2623 41.6664 34.6975V24.4746L45.8331 22.4829V39.6662C45.8331 40.8168 46.7659 41.7495 47.9164 41.7495C49.067 41.7495 49.9997 40.8168 49.9997 39.6662V14.6662C50.0136 12.2198 48.082 9.95983 45.9517 8.89538ZM37.4996 34.6975C37.5007 37.4279 35.7292 39.843 33.1247 40.6621C30.4834 41.4168 27.7464 41.7831 24.9996 41.7496C22.2529 41.7831 19.5159 41.4168 16.8747 40.6621C14.2701 39.8429 12.4986 37.4279 12.4996 34.6975V26.4642L19.4101 29.7559C21.1152 30.7684 23.0625 31.3005 25.0455 31.2955C26.933 31.3089 28.7888 30.8091 30.4143 29.8497L37.4996 26.4641V34.6975ZM44.1663 18.6766L28.4538 26.1766C26.263 27.4523 23.5475 27.4162 21.3913 26.0829L6.0184 18.7704C4.30483 17.8464 3.66479 15.7082 4.58881 13.9947C4.90131 13.4152 5.36986 12.9348 5.94135 12.6079L21.5559 5.14958C23.7474 3.87673 26.4615 3.91276 28.6184 5.24333L43.9809 12.5621C45.1107 13.1894 45.8175 14.3741 45.833 15.6663C45.835 16.8903 45.2047 18.0286 44.1663 18.6766Z" fill="#008080"/>
</svg>
