<svg width="42" height="50" viewBox="0 0 42 50" fill="none" xmlns="http://www.w3.org/2000/svg">
<path d="M34.7106 4.45981L21.6585 0.107728C21.2312 -0.0346073 20.7692 -0.0346073 20.3419 0.107728L7.28979 4.45981C5.21459 5.14915 3.40941 6.47493 2.13072 8.24879C0.852024 10.0227 0.164867 12.1544 0.166875 14.3411V25.0015C0.166875 40.7577 19.3335 49.4598 20.1544 49.8223C20.4207 49.9406 20.7088 50.0017 21.0002 50.0017C21.2916 50.0017 21.5797 49.9406 21.846 49.8223C22.6669 49.4598 41.8335 40.7577 41.8335 25.0015V14.3411C41.8356 12.1544 41.1484 10.0227 39.8697 8.24879C38.591 6.47493 36.7858 5.14915 34.7106 4.45981V4.45981ZM37.6669 25.0015C37.6669 36.3661 24.5023 43.8202 21.0002 45.6036C17.494 43.8265 4.33354 36.3952 4.33354 25.0015V14.3411C4.33366 13.0291 4.74661 11.7505 5.51389 10.6864C6.28116 9.6222 7.36384 8.82646 8.60854 8.4119L21.0002 4.28065L33.3919 8.4119C34.6366 8.82646 35.7193 9.6222 36.4865 10.6864C37.2538 11.7505 37.6668 13.0291 37.6669 14.3411V25.0015Z" fill="#FF6B6B"/>
<path d="M27.8749 17.2923L19.1499 26.0423L14.4749 21.1673C14.2873 20.9622 14.0605 20.7967 13.8079 20.6805C13.5554 20.5644 13.2821 20.5 13.0043 20.4911C12.7264 20.4822 12.4496 20.529 12.1901 20.6287C11.9306 20.7285 11.6937 20.8791 11.4934 21.0718C11.293 21.2646 11.1333 21.4954 11.0235 21.7508C10.9137 22.0062 10.8562 22.281 10.8543 22.559C10.8524 22.837 10.9061 23.1125 11.0123 23.3694C11.1186 23.6263 11.2751 23.8594 11.4728 24.0548L16.277 29.0548C16.6353 29.4418 17.0683 29.7521 17.5499 29.967C18.0316 30.1818 18.5518 30.2968 19.0791 30.3048H19.1478C19.6646 30.3065 20.1766 30.2056 20.654 30.0078C21.1315 29.81 21.5649 29.5194 21.9291 29.1528L30.8291 20.2527C31.0234 20.0588 31.1777 19.8284 31.2831 19.5748C31.3884 19.3212 31.4428 19.0493 31.4431 18.7747C31.4434 18.5001 31.3896 18.2281 31.2848 17.9743C31.1799 17.7205 31.0262 17.4898 30.8322 17.2954C30.6382 17.1011 30.4079 16.9468 30.1543 16.8414C29.9007 16.7361 29.6288 16.6817 29.3542 16.6814C29.0796 16.6811 28.8076 16.7349 28.5538 16.8397C28.3 16.9446 28.0693 17.0983 27.8749 17.2923V17.2923Z" fill="#FF6B6B"/>
</svg>
